<svg xmlns="http://www.w3.org/2000/svg" xmlns:xlink="http://www.w3.org/1999/xlink" width="500" zoomAndPan="magnify" viewBox="0 0 375 374.999991" height="500" preserveAspectRatio="xMidYMid meet" version="1.0"><defs><clipPath id="13356bb0b1"><path d="M 17.824219 131 L 357.546875 131 L 357.546875 297 L 17.824219 297 Z M 17.824219 131 " clip-rule="nonzero"/></clipPath><clipPath id="a8c84824d4"><path d="M 18 166 L 357.546875 166 L 357.546875 330 L 18 330 Z M 18 166 " clip-rule="nonzero"/></clipPath><clipPath id="280de4c793"><path d="M 27 252 L 313 252 L 313 369.082031 L 27 369.082031 Z M 27 252 " clip-rule="nonzero"/></clipPath></defs><g clip-path="url(#13356bb0b1)"><path fill="#26405c" d="M 30.527344 135.355469 C 36.984375 135.792969 44.570312 135.316406 53.859375 133.523438 C 123.074219 120.15625 130.558594 194.960938 222.226562 165.585938 C 313.195312 136.40625 282.574219 217.746094 357.09375 195.476562 C 357.128906 196.90625 357.140625 198.347656 357.140625 199.789062 C 357.140625 232.402344 347.9375 262.871094 331.976562 288.726562 L 167.972656 296.484375 L 41.863281 286.84375 C 26.613281 261.390625 17.851562 231.613281 17.851562 199.789062 C 17.851562 176.980469 22.363281 155.214844 30.527344 135.355469 Z M 30.527344 135.355469 " fill-opacity="1" fill-rule="evenodd"/></g><g clip-path="url(#a8c84824d4)"><path fill="#2f5073" d="M 353.832031 166.324219 C 309.910156 175.214844 291.980469 223.097656 215.582031 198.597656 C 123.914062 169.21875 155.710938 252.039062 79.011719 227.988281 L 18.089844 208.890625 C 20.382812 252.210938 38.925781 291.234375 67.742188 319.945312 L 269.824219 329.511719 L 299.441406 327.242188 C 334.8125 296.160156 357.140625 250.582031 357.140625 199.789062 C 357.140625 188.328125 356 177.144531 353.832031 166.324219 Z M 353.832031 166.324219 " fill-opacity="1" fill-rule="evenodd"/></g><g clip-path="url(#280de4c793)"><path fill="#97a8b9" d="M 27.242188 255.574219 C 34.375 256.449219 42.953125 256.148438 53.859375 254.042969 C 123.074219 240.675781 130.558594 315.496094 222.226562 286.105469 C 286.375 265.527344 290.0625 299.921875 312.78125 314.179688 C 281.761719 348.132812 237.109375 369.433594 187.496094 369.433594 C 113.34375 369.433594 50.3125 321.863281 27.242188 255.574219 Z M 27.242188 255.574219 " fill-opacity="1" fill-rule="evenodd"/></g><path stroke-linecap="butt" transform="matrix(0.325785, -0.353139, 0.353139, 0.325785, 26.619872, 80.988211)" fill="none" stroke-linejoin="miter" d="M 90.65911 117.000329 L 60.360756 116.999339 L 29.129562 56.755221 L 28.600164 56.756905 C 28.796777 58.588714 28.972602 60.793669 29.128102 63.360281 C 29.28314 65.938381 29.419324 68.555997 29.541705 71.230593 C 29.652598 73.904726 29.711182 76.306332 29.711018 78.452414 L 29.711308 117.001464 L 9.245869 116.999655 L 9.244978 31.484042 L 39.42247 31.485916 L 70.542691 90.914307 L 70.893786 90.911193 C 70.773468 89.042182 70.659672 86.868495 70.540911 84.389667 C 70.422149 81.910839 70.315801 79.409497 70.22233 76.874152 C 70.122884 74.344321 70.075284 72.098504 70.067579 70.147727 L 70.071919 31.483791 L 90.658219 31.484717 Z M 90.65911 117.000329 " stroke="#26405c" stroke-width="4.492275" stroke-opacity="1" stroke-miterlimit="4"/><path stroke-linecap="butt" transform="matrix(0.409863, -0.25071, 0.25071, 0.409863, 67.018807, 39.817549)" fill="none" stroke-linejoin="miter" d="M 61.70935 117.001056 L 57.493211 100.974361 L 29.711793 100.973777 L 25.388817 116.99994 L -0.00268279 117.003066 L 27.905271 31.133867 L 58.726407 31.135352 L 86.976748 116.998263 Z M 52.70251 82.022942 L 49.013153 67.986336 C 48.628774 66.464579 48.063144 64.288707 47.323199 61.462963 C 46.576319 58.632976 45.848363 55.709728 45.12546 52.684734 C 44.405251 49.670918 43.852088 47.178631 43.460181 45.232922 C 43.107478 47.180628 42.605812 49.589991 41.966361 52.458318 C 41.319974 55.322402 40.661266 58.159888 39.976364 60.96229 C 39.294156 63.77587 38.703877 66.111968 38.197043 67.984455 L 34.507362 82.024875 Z M 52.70251 82.022942 " stroke="#26405c" stroke-width="4.492275" stroke-opacity="1" stroke-miterlimit="4"/><path stroke-linecap="butt" transform="matrix(0.46095, -0.135528, 0.135528, 0.46095, 111.120218, 14.134009)" fill="none" stroke-linejoin="miter" d="M 81.944434 31.488767 L 81.947705 82.954396 C 81.947435 90.132082 80.580732 96.365653 77.849889 101.647308 C 75.119046 106.928963 71.030464 111.006354 65.568542 113.874893 C 60.108913 116.735633 53.263079 118.17188 45.035625 118.168035 C 33.263375 118.172769 24.271724 115.147702 18.073977 109.105222 C 11.87623 103.062742 8.768829 94.5222 8.777467 83.482675 L 8.778278 31.484363 L 31.996562 31.489148 L 31.995129 81.673768 C 31.997969 87.716808 33.124753 92.098839 35.388788 94.832248 C 37.645024 97.563365 40.981642 98.925741 45.388551 98.924884 C 48.547945 98.930105 51.122296 98.33112 53.107019 97.14353 C 55.101834 95.950433 56.552435 94.071918 57.471206 91.494676 C 58.387685 88.925235 58.845282 85.610721 58.843998 81.551135 L 58.844523 31.484889 Z M 81.944434 31.488767 " stroke="#26405c" stroke-width="4.492275" stroke-opacity="1" stroke-miterlimit="4"/><path stroke-linecap="butt" transform="matrix(0.479932, -0.0225439, 0.0225439, 0.479932, 161.304486, 1.014569)" fill="none" stroke-linejoin="miter" d="M 46.969511 117.003357 L 23.862543 117.000462 L 23.866393 50.381535 L 2.981486 50.377208 L 2.981684 31.486204 L 67.793878 31.486578 L 67.79368 50.377583 L 46.965622 50.375927 Z M 46.969511 117.003357 " stroke="#26405c" stroke-width="4.492275" stroke-opacity="1" stroke-miterlimit="4"/><path stroke-linecap="butt" transform="matrix(0.477029, 0.0573253, -0.0573253, 0.477029, 201.050778, 0.210289)" fill="none" stroke-linejoin="miter" d="M 9.245034 31.481394 L 32.460301 31.483929 L 32.459899 116.998563 L 9.244632 116.996028 Z M 9.245034 31.481394 " stroke="#26405c" stroke-width="4.492275" stroke-opacity="1" stroke-miterlimit="4"/><path stroke-linecap="butt" transform="matrix(0.461254, 0.13449, -0.13449, 0.461254, 226.65645, 3.21689)" fill="none" stroke-linejoin="miter" d="M 65.159505 91.031224 C 65.157812 95.672595 63.992219 100.068986 61.64484 104.217144 C 59.307542 108.370831 55.672731 111.734152 50.740405 114.307107 C 45.80808 116.880062 39.44267 118.168649 31.644177 118.172867 C 27.746557 118.166034 24.326031 117.994685 21.378048 117.64321 C 18.430066 117.291736 15.696414 116.716862 13.159207 115.915334 C 10.624276 115.121612 7.990829 114.077145 5.26114 112.78974 L 5.262556 92.201784 C 9.907633 94.539773 14.586578 96.325887 19.30492 97.550045 C 24.017733 98.784284 28.293845 99.392135 32.11439 99.396035 C 34.409385 99.395904 36.293014 99.117685 37.751944 98.573735 C 39.21868 98.02751 40.304613 97.278972 40.999664 96.322594 C 41.704796 95.371744 42.052862 94.270944 42.051667 93.017917 C 42.051467 91.535943 41.540997 90.27897 40.502369 89.243744 C 39.473823 88.214048 37.827386 87.127388 35.559804 86.001651 C 33.297752 84.865832 30.31506 83.465884 26.614983 81.783919 C 23.457662 80.307857 20.600511 78.786616 18.045807 77.228002 C 15.491103 75.669388 13.310408 73.88316 11.495916 71.871594 C 9.683701 69.867833 8.286155 67.514508 7.307831 64.82723 C 6.337312 62.137675 5.851069 58.9597 5.849103 55.293302 C 5.847291 49.797608 7.2038 45.184644 9.910823 41.456686 C 12.627928 37.734258 16.410986 34.937462 21.259999 33.066299 C 26.116817 31.19286 31.72251 30.261288 38.080331 30.253695 C 43.653099 30.254817 48.671985 30.883219 53.142517 32.128819 C 57.605243 33.376696 61.611038 34.800146 65.1599 36.39917 L 58.082185 54.240144 C 54.41788 52.564687 50.810133 51.228426 47.258944 50.231362 C 43.71003 49.242104 40.412787 48.738403 37.374041 48.743674 C 35.382791 48.739928 33.760307 48.984348 32.488701 49.473678 C 31.224901 49.960733 30.289221 50.614648 29.681663 51.435422 C 29.079634 52.246115 28.778737 53.189194 28.779949 54.238966 C 28.775934 55.561262 29.29389 56.756771 30.329264 57.809883 C 31.362362 58.85519 33.093998 60.001695 35.535233 61.229238 C 37.968662 62.459056 41.294107 64.047004 45.503762 65.995357 C 49.682855 67.867934 53.226153 69.883549 56.151543 72.045456 C 59.079209 74.215168 61.308942 76.808567 62.850824 79.831182 C 64.392706 82.853798 65.158906 86.585302 65.159505 91.031224 Z M 65.159505 91.031224 " stroke="#26405c" stroke-width="4.492275" stroke-opacity="1" stroke-miterlimit="4"/><path stroke-linecap="butt" transform="matrix(0.418177, 0.236582, -0.236582, 0.418177, 266.227633, 15.219019)" fill="none" stroke-linejoin="miter" d="M 61.707781 117.003337 L 57.496816 100.974295 L 29.714387 100.970944 L 25.387921 117.000631 L -0.00250003 116.998478 L 27.897603 31.136937 L 58.723509 31.137224 L 86.974184 117.000924 Z M 52.699376 82.026334 L 49.016353 67.987189 C 48.621538 66.463762 48.062132 64.28616 47.316906 61.466395 C 46.574753 58.63555 45.846103 55.712995 45.126954 52.691654 C 44.403802 49.663237 43.850737 47.183131 43.45575 45.230109 C 43.111562 47.180965 42.612149 49.583943 41.965519 52.453194 C 41.325966 55.318443 40.663322 58.15939 39.980662 60.964955 C 39.298002 63.770521 38.701016 66.116607 38.195849 67.981054 L 34.51021 82.022839 Z M 52.699376 82.026334 " stroke="#26405c" stroke-width="4.492275" stroke-opacity="1" stroke-miterlimit="4"/><path stroke-linecap="butt" transform="matrix(0.365808, 0.311493, -0.311493, 0.365808, 307.46433, 40.461326)" fill="none" stroke-linejoin="miter" d="M 9.24645 31.486063 L 32.460254 31.484779 L 32.460148 116.997699 L 9.240155 117.004254 Z M 9.24645 31.486063 " stroke="#26405c" stroke-width="4.492275" stroke-opacity="1" stroke-miterlimit="4"/><path stroke-linecap="butt" transform="matrix(0.309684, 0.36734, -0.36734, 0.309684, 327.168909, 57.136571)" fill="none" stroke-linejoin="miter" d="M 9.241764 117.003651 L 9.240293 31.484807 L 32.348036 31.484406 L 32.346666 98.338409 L 65.275009 98.344057 L 65.276874 116.997442 Z M 9.241764 117.003651 " stroke="#26405c" stroke-width="4.492275" stroke-opacity="1" stroke-miterlimit="4"/></svg>