<svg xmlns="http://www.w3.org/2000/svg" xmlns:xlink="http://www.w3.org/1999/xlink" width="500" zoomAndPan="magnify" viewBox="0 0 375 374.999991" height="500" preserveAspectRatio="xMidYMid meet" version="1.0"><defs><clipPath id="ad22b61b23"><path d="M 17.824219 131 L 357.546875 131 L 357.546875 297 L 17.824219 297 Z M 17.824219 131 " clip-rule="nonzero"/></clipPath><clipPath id="cc2c159b1c"><path d="M 18 166 L 357.546875 166 L 357.546875 330 L 18 330 Z M 18 166 " clip-rule="nonzero"/></clipPath><clipPath id="d89c43e6c7"><path d="M 27 252 L 313 252 L 313 369.082031 L 27 369.082031 Z M 27 252 " clip-rule="nonzero"/></clipPath></defs><g clip-path="url(#ad22b61b23)"><path fill="#eeeeee" d="M 30.527344 135.355469 C 36.984375 135.792969 44.570312 135.316406 53.859375 133.523438 C 123.074219 120.15625 130.558594 194.960938 222.226562 165.585938 C 313.195312 136.40625 282.574219 217.746094 357.09375 195.476562 C 357.128906 196.90625 357.140625 198.347656 357.140625 199.789062 C 357.140625 232.402344 347.9375 262.871094 331.976562 288.726562 L 167.972656 296.484375 L 41.863281 286.84375 C 26.613281 261.390625 17.851562 231.613281 17.851562 199.789062 C 17.851562 176.980469 22.363281 155.214844 30.527344 135.355469 Z M 30.527344 135.355469 " fill-opacity="1" fill-rule="evenodd"/></g><g clip-path="url(#cc2c159b1c)"><path fill="#f7f7f7" d="M 353.832031 166.324219 C 309.910156 175.214844 291.980469 223.097656 215.582031 198.597656 C 123.914062 169.21875 155.710938 252.039062 79.011719 227.988281 L 18.089844 208.890625 C 20.382812 252.210938 38.925781 291.234375 67.742188 319.945312 L 269.824219 329.511719 L 299.441406 327.242188 C 334.8125 296.160156 357.140625 250.582031 357.140625 199.789062 C 357.140625 188.328125 356 177.144531 353.832031 166.324219 Z M 353.832031 166.324219 " fill-opacity="1" fill-rule="evenodd"/></g><g clip-path="url(#d89c43e6c7)"><path fill="#ffffff" d="M 27.242188 255.574219 C 34.375 256.449219 42.953125 256.148438 53.859375 254.042969 C 123.074219 240.675781 130.558594 315.496094 222.226562 286.105469 C 286.375 265.527344 290.0625 299.921875 312.78125 314.179688 C 281.761719 348.132812 237.109375 369.433594 187.496094 369.433594 C 113.34375 369.433594 50.3125 321.863281 27.242188 255.574219 Z M 27.242188 255.574219 " fill-opacity="1" fill-rule="evenodd"/></g><path stroke-linecap="butt" transform="matrix(0.325785, -0.353139, 0.353139, 0.325785, 26.619872, 80.988218)" fill="none" stroke-linejoin="miter" d="M 90.659121 117.000319 L 60.360767 116.999329 L 29.129573 56.755211 L 28.600175 56.756895 C 28.796788 58.588704 28.972613 60.793659 29.128113 63.360271 C 29.283151 65.938371 29.419335 68.555987 29.541716 71.230583 C 29.652609 73.904716 29.711193 76.306322 29.711029 78.452404 L 29.711319 117.001454 L 9.24588 116.999644 L 9.244989 31.484032 L 39.422481 31.485906 L 70.542702 90.914297 L 70.893797 90.911182 C 70.773479 89.042172 70.659683 86.868485 70.540922 84.389657 C 70.42216 81.910829 70.315812 79.409487 70.222342 76.874142 C 70.122895 74.34431 70.075295 72.098493 70.06759 70.147717 L 70.07193 31.483781 L 90.65823 31.484707 Z M 90.659121 117.000319 " stroke="#ffffff" stroke-width="4.492275" stroke-opacity="1" stroke-miterlimit="4"/><path stroke-linecap="butt" transform="matrix(0.409863, -0.25071, 0.25071, 0.409863, 67.018807, 39.817556)" fill="none" stroke-linejoin="miter" d="M 61.709358 117.001043 L 57.493219 100.974348 L 29.711801 100.973765 L 25.388825 116.999928 L -0.00267497 117.003053 L 27.905279 31.133854 L 58.726415 31.135339 L 86.976756 116.99825 Z M 52.702517 82.022929 L 49.01316 67.986323 C 48.628781 66.464566 48.063152 64.288695 47.323207 61.46295 C 46.576326 58.632963 45.848371 55.709715 45.125468 52.684721 C 44.405259 49.670905 43.852096 47.178618 43.460188 45.232909 C 43.107486 47.180615 42.60582 49.589979 41.966369 52.458305 C 41.319982 55.322389 40.661273 58.159875 39.976372 60.962277 C 39.294164 63.775858 38.703885 66.111955 38.197051 67.984442 L 34.50737 82.024862 Z M 52.702517 82.022929 " stroke="#ffffff" stroke-width="4.492275" stroke-opacity="1" stroke-miterlimit="4"/><path stroke-linecap="butt" transform="matrix(0.46095, -0.135528, 0.135528, 0.46095, 111.120218, 14.134013)" fill="none" stroke-linejoin="miter" d="M 81.944436 31.48876 L 81.947707 82.954388 C 81.947438 90.132075 80.580735 96.365646 77.849892 101.6473 C 75.119049 106.928955 71.030466 111.006346 65.568544 113.874886 C 60.108916 116.735625 53.263081 118.171873 45.035628 118.168028 C 33.263378 118.172761 24.271726 115.147695 18.073979 109.105215 C 11.876232 103.062735 8.768831 94.522192 8.77747 83.482667 L 8.77828 31.484355 L 31.996564 31.489141 L 31.995131 81.673761 C 31.997971 87.7168 33.124755 92.098831 35.388791 94.832241 C 37.645026 97.563357 40.981645 98.925733 45.388553 98.924876 C 48.547947 98.930097 51.122299 98.331112 53.107021 97.143522 C 55.101836 95.950426 56.552437 94.07191 57.471209 91.494669 C 58.387687 88.925227 58.845284 85.610713 58.844 81.551127 L 58.844526 31.484881 Z M 81.944436 31.48876 " stroke="#ffffff" stroke-width="4.492275" stroke-opacity="1" stroke-miterlimit="4"/><path stroke-linecap="butt" transform="matrix(0.479932, -0.0225439, 0.0225439, 0.479932, 161.304486, 1.014551)" fill="none" stroke-linejoin="miter" d="M 46.969509 117.003394 L 23.862541 117.0005 L 23.866391 50.381573 L 2.981484 50.377246 L 2.981682 31.486241 L 67.793877 31.486616 L 67.793679 50.377621 L 46.96562 50.375964 Z M 46.969509 117.003394 " stroke="#ffffff" stroke-width="4.492275" stroke-opacity="1" stroke-miterlimit="4"/><path stroke-linecap="butt" transform="matrix(0.477029, 0.0573253, -0.0573253, 0.477029, 201.050778, 0.210293)" fill="none" stroke-linejoin="miter" d="M 9.245033 31.481385 L 32.4603 31.48392 L 32.459898 116.998553 L 9.244631 116.996019 Z M 9.245033 31.481385 " stroke="#ffffff" stroke-width="4.492275" stroke-opacity="1" stroke-miterlimit="4"/><path stroke-linecap="butt" transform="matrix(0.461254, 0.13449, -0.13449, 0.461254, 226.65645, 3.216885)" fill="none" stroke-linejoin="miter" d="M 65.159509 91.031235 C 65.157815 95.672607 63.992222 100.068998 61.644843 104.217155 C 59.307546 108.370842 55.672734 111.734163 50.740408 114.307118 C 45.808083 116.880074 39.442673 118.168661 31.64418 118.172879 C 27.74656 118.166045 24.326035 117.994696 21.378052 117.643222 C 18.430069 117.291748 15.696417 116.716873 13.159211 115.915346 C 10.62428 115.121623 7.990832 114.077157 5.261143 112.789752 L 5.26256 92.201795 C 9.907636 94.539785 14.586581 96.325899 19.304923 97.550057 C 24.017736 98.784295 28.293848 99.392146 32.114394 99.396047 C 34.409388 99.395916 36.293018 99.117697 37.751948 98.573747 C 39.218683 98.027521 40.304617 97.278984 40.999667 96.322605 C 41.704799 95.371756 42.052865 94.270956 42.05167 93.017928 C 42.051471 91.535954 41.541 90.278981 40.502373 89.243756 C 39.473826 88.214059 37.827389 87.127399 35.559807 86.001662 C 33.297755 84.865844 30.315064 83.465895 26.614987 81.78393 C 23.457665 80.307868 20.600514 78.786628 18.04581 77.228014 C 15.491107 75.6694 13.310411 73.883172 11.49592 71.871605 C 9.683704 69.867844 8.286158 67.514519 7.307834 64.827241 C 6.337315 62.137687 5.851072 58.959711 5.849106 55.293313 C 5.847295 49.79762 7.203803 45.184656 9.910827 41.456698 C 12.627931 37.734269 16.41099 34.937473 21.260002 33.06631 C 26.11682 31.192872 31.722513 30.261299 38.080335 30.253707 C 43.653103 30.254829 48.671988 30.88323 53.14252 32.128831 C 57.605247 33.376707 61.611041 34.800157 65.159903 36.399181 L 58.082188 54.240156 C 54.417884 52.564698 50.810137 51.228437 47.258947 50.231374 C 43.710034 49.242115 40.41279 48.738414 37.374044 48.743685 C 35.382794 48.73994 33.76031 48.984359 32.488704 49.47369 C 31.224904 49.960745 30.289225 50.614659 29.681666 51.435434 C 29.079637 52.246127 28.77874 53.189205 28.779952 54.238977 C 28.775938 55.561274 29.293893 56.756783 30.329267 57.809895 C 31.362365 58.855201 33.094002 60.001707 35.535236 61.229249 C 37.968665 62.459067 41.29411 64.047015 45.503766 65.995368 C 49.682858 67.867946 53.226156 69.883561 56.151546 72.045467 C 59.079212 74.215179 61.308946 76.808578 62.850827 79.831194 C 64.392709 82.853809 65.158909 86.585313 65.159509 91.031235 Z M 65.159509 91.031235 " stroke="#ffffff" stroke-width="4.492275" stroke-opacity="1" stroke-miterlimit="4"/><path stroke-linecap="butt" transform="matrix(0.418177, 0.236582, -0.236582, 0.418177, 266.227633, 15.219052)" fill="none" stroke-linejoin="miter" d="M 61.707748 117.003277 L 57.496782 100.974235 L 29.714354 100.970884 L 25.387887 117.000571 L -0.00253398 116.998418 L 27.897569 31.136877 L 58.723475 31.137164 L 86.97415 117.000864 Z M 52.699342 82.026274 L 49.016319 67.987129 C 48.621504 66.463702 48.062098 64.2861 47.316872 61.466335 C 46.574719 58.63549 45.846069 55.712935 45.12692 52.691594 C 44.403768 49.663177 43.850703 47.183071 43.455716 45.230049 C 43.111528 47.180905 42.612115 49.583883 41.965486 52.453134 C 41.325932 55.318383 40.663289 58.15933 39.980628 60.964895 C 39.297968 63.770461 38.700982 66.116547 38.195815 67.980994 L 34.510176 82.022779 Z M 52.699342 82.026274 " stroke="#ffffff" stroke-width="4.492275" stroke-opacity="1" stroke-miterlimit="4"/><path stroke-linecap="butt" transform="matrix(0.365808, 0.311493, -0.311493, 0.365808, 307.46433, 40.461326)" fill="none" stroke-linejoin="miter" d="M 9.24645 31.486063 L 32.460254 31.484779 L 32.460148 116.997699 L 9.240155 117.004254 Z M 9.24645 31.486063 " stroke="#ffffff" stroke-width="4.492275" stroke-opacity="1" stroke-miterlimit="4"/><path stroke-linecap="butt" transform="matrix(0.309684, 0.36734, -0.36734, 0.309684, 327.168909, 57.136549)" fill="none" stroke-linejoin="miter" d="M 9.241799 117.00368 L 9.240328 31.484836 L 32.348071 31.484435 L 32.346701 98.338438 L 65.275043 98.344086 L 65.276908 116.997471 Z M 9.241799 117.00368 " stroke="#ffffff" stroke-width="4.492275" stroke-opacity="1" stroke-miterlimit="4"/></svg>