<svg xmlns="http://www.w3.org/2000/svg" xmlns:xlink="http://www.w3.org/1999/xlink" width="500" zoomAndPan="magnify" viewBox="0 0 375 374.999991" height="500" preserveAspectRatio="xMidYMid meet" version="1.0"><defs><clipPath id="dc8a503507"><path d="M 10 245 L 326 245 L 326 374.78125 L 10 374.78125 Z M 10 245 " clip-rule="nonzero"/></clipPath></defs><path fill="#26405c" d="M 187.5 0 C 84.050781 0 0 84.050781 0 187.5 C 0 290.949219 84.050781 375 187.5 375 C 290.949219 375 375 290.949219 375 187.5 C 375 84.050781 290.949219 0 187.5 0 Z M 187.5 8.152344 C 286.65625 8.152344 366.847656 88.34375 366.847656 187.5 C 366.847656 286.65625 286.65625 366.847656 187.5 366.847656 C 88.34375 366.847656 8.152344 286.65625 8.152344 187.5 C 8.152344 88.34375 88.34375 8.152344 187.5 8.152344 Z M 187.5 8.152344 " fill-opacity="1" fill-rule="nonzero"/><path fill="#26405c" d="M 14.042969 116.324219 C 21.179688 116.808594 29.5625 116.28125 39.828125 114.300781 C 116.308594 99.53125 124.582031 182.191406 225.878906 149.730469 C 326.402344 117.488281 292.566406 207.367188 374.910156 182.761719 C 374.949219 184.339844 374.964844 185.933594 374.964844 187.527344 C 374.964844 223.566406 364.792969 257.234375 347.15625 285.804688 L 165.925781 294.382812 L 26.570312 283.726562 C 9.71875 255.597656 0.0351562 222.691406 0.0351562 187.527344 C 0.0351562 162.324219 5.023438 138.269531 14.042969 116.324219 Z M 14.042969 116.324219 " fill-opacity="1" fill-rule="evenodd"/><path fill="#2f5073" d="M 371.308594 150.546875 C 322.769531 160.371094 302.957031 213.285156 218.535156 186.210938 C 117.238281 153.746094 152.375 245.261719 67.621094 218.6875 L 0.296875 197.585938 C 2.835938 245.457031 23.328125 288.574219 55.167969 320.304688 L 278.476562 330.875 L 311.203125 328.367188 C 350.289062 294.019531 374.964844 243.65625 374.964844 187.527344 C 374.964844 174.863281 373.703125 162.503906 371.308594 150.546875 Z M 371.308594 150.546875 " fill-opacity="1" fill-rule="evenodd"/><g clip-path="url(#dc8a503507)"><path fill="#97a8b9" d="M 10.414062 249.171875 C 18.296875 250.140625 27.773438 249.808594 39.828125 247.480469 C 116.308594 232.710938 124.582031 315.386719 225.878906 282.910156 C 296.765625 260.171875 300.835938 298.175781 325.945312 313.929688 C 291.664062 351.453125 242.324219 374.992188 187.5 374.992188 C 105.558594 374.992188 35.90625 322.425781 10.414062 249.171875 Z M 10.414062 249.171875 " fill-opacity="1" fill-rule="evenodd"/></g></svg>