<svg xmlns="http://www.w3.org/2000/svg" xmlns:xlink="http://www.w3.org/1999/xlink" width="500" zoomAndPan="magnify" viewBox="0 0 375 374.999991" height="500" preserveAspectRatio="xMidYMid meet" version="1.0"><defs><g/><clipPath id="3fa11ab7e4"><path d="M 0 167 L 375 167 L 375 257.621094 L 0 257.621094 Z M 0 167 " clip-rule="nonzero"/></clipPath><clipPath id="5ef7a904ec"><path d="M 0 182 L 375 182 L 375 257.621094 L 0 257.621094 Z M 0 182 " clip-rule="nonzero"/></clipPath><clipPath id="35576ba6db"><path d="M 0 201 L 375 201 L 375 257.621094 L 0 257.621094 Z M 0 201 " clip-rule="nonzero"/></clipPath><clipPath id="e80c4d38ea"><path d="M 0 228 L 375 228 L 375 331.65625 L 0 331.65625 Z M 0 228 " clip-rule="nonzero"/></clipPath><clipPath id="c88e4fe85d"><path d="M 0 244 L 375 244 L 375 331.65625 L 0 331.65625 Z M 0 244 " clip-rule="nonzero"/></clipPath><clipPath id="ba4e7f24f5"><path d="M 0 267 L 375 267 L 375 331.65625 L 0 331.65625 Z M 0 267 " clip-rule="nonzero"/></clipPath></defs><g clip-path="url(#3fa11ab7e4)"><path fill="#eeeeee" d="M 391.375 190.984375 L 391.375 257.84375 L -22.671875 257.84375 L -22.671875 188.898438 C -17.597656 186.21875 -12.21875 184.128906 -6.6875 182.53125 C 0.921875 180.335938 8.828125 179.082031 16.664062 178.511719 C 26.292969 177.820312 35.996094 178.160156 45.574219 179.324219 C 78.117188 183.285156 109.953125 194.453125 142.71875 193.367188 C 182.882812 192.039062 220.421875 172.433594 260.417969 168.558594 C 301.117188 164.613281 341.363281 177.117188 380.753906 188.085938 C 381.378906 188.257812 382.003906 188.433594 382.632812 188.609375 C 385.535156 189.410156 388.449219 190.207031 391.375 190.984375 Z M 391.375 190.984375 " fill-opacity="1" fill-rule="nonzero"/></g><g clip-path="url(#5ef7a904ec)"><path fill="#f7f7f7" d="M 391.375 189.789062 L 391.375 257.84375 L -22.671875 257.84375 L -22.671875 182.335938 C -16.945312 182.089844 -11.460938 182.222656 -6.6875 182.53125 C -6.570312 182.539062 -6.453125 182.546875 -6.335938 182.554688 C 7.472656 183.480469 21.125 186.382812 34.316406 190.519531 C 63.8125 199.769531 92.125 213.921875 122.179688 220.148438 C 127.445312 221.242188 132.761719 222.085938 138.148438 222.625 C 172.105469 226.003906 204.988281 216.769531 237.972656 206.695312 C 265.957031 198.148438 294.011719 188.996094 322.851562 186.429688 C 342.777344 184.660156 362.746094 186.066406 382.632812 188.609375 C 385.546875 188.976562 388.464844 189.375 391.375 189.789062 Z M 391.375 189.789062 " fill-opacity="1" fill-rule="nonzero"/></g><g clip-path="url(#35576ba6db)"><path fill="#ffffff" d="M 391.375 257.84375 L -22.671875 257.84375 L -22.671875 221.410156 C -15.777344 219.242188 -8.566406 217.996094 -2.34375 217.457031 C 6.859375 216.664062 16.15625 217.132812 25.300781 218.332031 C 48.800781 221.417969 72.179688 228.378906 95.761719 226.035156 C 104.796875 225.140625 113.539062 222.90625 122.179688 220.148438 C 138.851562 214.832031 155.132812 207.570312 172.320312 204.207031 C 194.261719 199.917969 216.105469 202.121094 237.972656 206.695312 C 278.742188 215.21875 319.578125 231.984375 361.226562 230.253906 C 371.269531 229.835938 381.398438 228.339844 391.375 228.898438 Z M 391.375 257.84375 " fill-opacity="1" fill-rule="nonzero"/></g><g clip-path="url(#e80c4d38ea)"><path fill="#eeeeee" d="M 473.730469 254.757812 L 473.730469 331.738281 L -2.980469 331.738281 L -2.980469 252.355469 C 2.859375 249.273438 9.050781 246.863281 15.417969 245.027344 C 24.179688 242.5 33.285156 241.054688 42.304688 240.402344 C 53.394531 239.601562 64.5625 239.992188 75.59375 241.335938 C 113.0625 245.898438 149.714844 258.75 187.441406 257.503906 C 233.683594 255.972656 276.902344 233.402344 322.953125 228.9375 C 369.808594 224.394531 416.148438 238.792969 461.5 251.421875 C 462.222656 251.621094 462.941406 251.824219 463.664062 252.023438 C 467.003906 252.949219 470.363281 253.863281 473.730469 254.757812 Z M 473.730469 254.757812 " fill-opacity="1" fill-rule="nonzero"/></g><g clip-path="url(#c88e4fe85d)"><path fill="#f7f7f7" d="M 473.730469 253.382812 L 473.730469 331.738281 L -2.980469 331.738281 L -2.980469 244.800781 C 3.609375 244.515625 9.921875 244.667969 15.417969 245.027344 C 15.554688 245.035156 15.691406 245.042969 15.828125 245.054688 C 31.722656 246.121094 47.445312 249.460938 62.628906 254.222656 C 96.589844 264.875 129.1875 281.167969 163.792969 288.339844 C 169.851562 289.59375 175.972656 290.570312 182.175781 291.1875 C 221.273438 295.078125 259.132812 284.445312 297.109375 272.847656 C 329.332031 263.007812 361.628906 252.46875 394.835938 249.519531 C 417.777344 247.476562 440.769531 249.097656 463.664062 252.023438 C 467.023438 252.449219 470.378906 252.90625 473.730469 253.382812 Z M 473.730469 253.382812 " fill-opacity="1" fill-rule="nonzero"/></g><g clip-path="url(#ba4e7f24f5)"><path fill="#ffffff" d="M 473.730469 331.738281 L -2.980469 331.738281 L -2.980469 289.789062 C 4.957031 287.292969 13.257812 285.859375 20.421875 285.242188 C 31.019531 284.328125 41.722656 284.863281 52.253906 286.246094 C 79.308594 289.796875 106.226562 297.8125 133.378906 295.117188 C 143.777344 294.082031 153.84375 291.511719 163.792969 288.339844 C 182.988281 282.21875 201.730469 273.855469 221.519531 269.984375 C 246.78125 265.046875 271.933594 267.582031 297.109375 272.847656 C 344.046875 282.664062 391.070312 301.964844 439.015625 299.972656 C 450.582031 299.488281 462.246094 297.769531 473.730469 298.410156 Z M 473.730469 331.738281 " fill-opacity="1" fill-rule="nonzero"/></g><g fill="#eeeeee" fill-opacity="1"><g transform="translate(17.074579, 97.397967)"><g><path d="M 47 0 L 31.296875 0 L 15.09375 -31.234375 L 14.828125 -31.234375 C 14.929688 -30.273438 15.019531 -29.128906 15.09375 -27.796875 C 15.175781 -26.460938 15.25 -25.101562 15.3125 -23.71875 C 15.375 -22.332031 15.40625 -21.085938 15.40625 -19.984375 L 15.40625 0 L 4.796875 0 L 4.796875 -44.328125 L 20.4375 -44.328125 L 36.5625 -13.515625 L 36.75 -13.515625 C 36.6875 -14.492188 36.625 -15.625 36.5625 -16.90625 C 36.5 -18.1875 36.441406 -19.484375 36.390625 -20.796875 C 36.347656 -22.109375 36.328125 -23.269531 36.328125 -24.28125 L 36.328125 -44.328125 L 47 -44.328125 Z M 47 0 "/></g></g></g><g fill="#eeeeee" fill-opacity="1"><g transform="translate(68.856915, 97.397967)"><g><path d="M 31.984375 0 L 29.796875 -8.3125 L 15.40625 -8.3125 L 13.15625 0 L 0 0 L 14.46875 -44.515625 L 30.4375 -44.515625 L 45.078125 0 Z M 27.3125 -18.125 L 25.40625 -25.40625 C 25.207031 -26.195312 24.914062 -27.320312 24.53125 -28.78125 C 24.144531 -30.25 23.765625 -31.765625 23.390625 -33.328125 C 23.015625 -34.898438 22.726562 -36.191406 22.53125 -37.203125 C 22.34375 -36.191406 22.082031 -34.941406 21.75 -33.453125 C 21.414062 -31.972656 21.070312 -30.503906 20.71875 -29.046875 C 20.363281 -27.585938 20.054688 -26.375 19.796875 -25.40625 L 17.890625 -18.125 Z M 27.3125 -18.125 "/></g></g></g><g fill="#eeeeee" fill-opacity="1"><g transform="translate(113.939083, 97.397967)"><g><path d="M 42.484375 -44.328125 L 42.484375 -17.640625 C 42.484375 -13.921875 41.773438 -10.691406 40.359375 -7.953125 C 38.941406 -5.210938 36.816406 -3.097656 33.984375 -1.609375 C 31.160156 -0.128906 27.613281 0.609375 23.34375 0.609375 C 17.238281 0.609375 12.578125 -0.957031 9.359375 -4.09375 C 6.148438 -7.226562 4.546875 -11.65625 4.546875 -17.375 L 4.546875 -44.328125 L 16.578125 -44.328125 L 16.578125 -18.3125 C 16.578125 -15.175781 17.164062 -12.898438 18.34375 -11.484375 C 19.519531 -10.078125 21.25 -9.375 23.53125 -9.375 C 25.164062 -9.375 26.5 -9.679688 27.53125 -10.296875 C 28.5625 -10.910156 29.3125 -11.882812 29.78125 -13.21875 C 30.257812 -14.550781 30.5 -16.269531 30.5 -18.375 L 30.5 -44.328125 Z M 42.484375 -44.328125 "/></g></g></g><g fill="#eeeeee" fill-opacity="1"><g transform="translate(160.931249, 97.397967)"><g><path d="M 24.34375 0 L 12.375 0 L 12.375 -34.53125 L 1.546875 -34.53125 L 1.546875 -44.328125 L 35.140625 -44.328125 L 35.140625 -34.53125 L 24.34375 -34.53125 Z M 24.34375 0 "/></g></g></g><g fill="#eeeeee" fill-opacity="1"><g transform="translate(197.615457, 97.397967)"><g><path d="M 4.796875 0 L 4.796875 -44.328125 L 16.828125 -44.328125 L 16.828125 0 Z M 4.796875 0 "/></g></g></g><g fill="#eeeeee" fill-opacity="1"><g transform="translate(219.23186, 97.397967)"><g><path d="M 33.78125 -13.46875 C 33.78125 -11.0625 33.171875 -8.78125 31.953125 -6.625 C 30.742188 -4.46875 28.859375 -2.722656 26.296875 -1.390625 C 23.742188 -0.0546875 20.445312 0.609375 16.40625 0.609375 C 14.382812 0.609375 12.609375 0.515625 11.078125 0.328125 C 9.554688 0.148438 8.132812 -0.144531 6.8125 -0.5625 C 5.5 -0.976562 4.140625 -1.519531 2.734375 -2.1875 L 2.734375 -12.859375 C 5.140625 -11.640625 7.5625 -10.710938 10 -10.078125 C 12.445312 -9.441406 14.660156 -9.125 16.640625 -9.125 C 17.835938 -9.125 18.8125 -9.265625 19.5625 -9.546875 C 20.320312 -9.828125 20.882812 -10.210938 21.25 -10.703125 C 21.613281 -11.203125 21.796875 -11.78125 21.796875 -12.4375 C 21.796875 -13.195312 21.523438 -13.84375 20.984375 -14.375 C 20.453125 -14.914062 19.597656 -15.476562 18.421875 -16.0625 C 17.253906 -16.65625 15.710938 -17.382812 13.796875 -18.25 C 12.160156 -19.019531 10.679688 -19.804688 9.359375 -20.609375 C 8.035156 -21.421875 6.898438 -22.347656 5.953125 -23.390625 C 5.015625 -24.429688 4.289062 -25.648438 3.78125 -27.046875 C 3.28125 -28.441406 3.03125 -30.085938 3.03125 -31.984375 C 3.03125 -34.835938 3.734375 -37.226562 5.140625 -39.15625 C 6.546875 -41.082031 8.503906 -42.53125 11.015625 -43.5 C 13.535156 -44.476562 16.441406 -44.96875 19.734375 -44.96875 C 22.628906 -44.96875 25.234375 -44.640625 27.546875 -43.984375 C 29.859375 -43.335938 31.9375 -42.601562 33.78125 -41.78125 L 30.109375 -32.53125 C 28.203125 -33.40625 26.328125 -34.097656 24.484375 -34.609375 C 22.648438 -35.117188 20.945312 -35.375 19.375 -35.375 C 18.34375 -35.375 17.5 -35.25 16.84375 -35 C 16.1875 -34.75 15.703125 -34.410156 15.390625 -33.984375 C 15.078125 -33.554688 14.921875 -33.070312 14.921875 -32.53125 C 14.921875 -31.84375 15.1875 -31.222656 15.71875 -30.671875 C 16.257812 -30.128906 17.160156 -29.539062 18.421875 -28.90625 C 19.679688 -28.269531 21.40625 -27.445312 23.59375 -26.4375 C 25.75 -25.46875 27.582031 -24.421875 29.09375 -23.296875 C 30.613281 -22.179688 31.773438 -20.835938 32.578125 -19.265625 C 33.378906 -17.703125 33.78125 -15.769531 33.78125 -13.46875 Z M 33.78125 -13.46875 "/></g></g></g><g fill="#eeeeee" fill-opacity="1"><g transform="translate(255.067177, 97.397967)"><g><path d="M 31.984375 0 L 29.796875 -8.3125 L 15.40625 -8.3125 L 13.15625 0 L 0 0 L 14.46875 -44.515625 L 30.4375 -44.515625 L 45.078125 0 Z M 27.3125 -18.125 L 25.40625 -25.40625 C 25.207031 -26.195312 24.914062 -27.320312 24.53125 -28.78125 C 24.144531 -30.25 23.765625 -31.765625 23.390625 -33.328125 C 23.015625 -34.898438 22.726562 -36.191406 22.53125 -37.203125 C 22.34375 -36.191406 22.082031 -34.941406 21.75 -33.453125 C 21.414062 -31.972656 21.070312 -30.503906 20.71875 -29.046875 C 20.363281 -27.585938 20.054688 -26.375 19.796875 -25.40625 L 17.890625 -18.125 Z M 27.3125 -18.125 "/></g></g></g><g fill="#eeeeee" fill-opacity="1"><g transform="translate(300.149332, 97.397967)"><g><path d="M 4.796875 0 L 4.796875 -44.328125 L 16.828125 -44.328125 L 16.828125 0 Z M 4.796875 0 "/></g></g></g><g fill="#eeeeee" fill-opacity="1"><g transform="translate(321.765736, 97.397967)"><g><path d="M 4.796875 0 L 4.796875 -44.328125 L 16.765625 -44.328125 L 16.765625 -9.671875 L 33.84375 -9.671875 L 33.84375 0 Z M 4.796875 0 "/></g></g></g><path stroke-linecap="butt" transform="matrix(0.852194, 0, 0, 0.852194, 17.860197, 109.266658)" fill="none" stroke-linejoin="miter" d="M 30.728554 52.001532 L 28.633777 44.034959 L 14.827495 44.034959 L 12.677712 52.001532 L 0.0632082 52.001532 L 13.929079 9.331321 L 29.248 9.331321 L 43.28347 52.001532 Z M 26.250222 34.619918 L 24.421302 27.643437 C 24.228784 26.887117 23.944591 25.80535 23.577891 24.40272 C 23.21119 22.995506 22.844489 21.542455 22.486956 20.038982 C 22.129423 18.540093 21.854397 17.302478 21.657296 16.335305 C 21.483113 17.302478 21.240174 18.498839 20.919311 19.924388 C 20.598448 21.349937 20.268417 22.757151 19.929219 24.155197 C 19.590021 25.54866 19.29666 26.712934 19.044553 27.643437 L 17.21105 34.619918 Z M 83.94141 29.852809 C 83.94141 34.794101 83.020074 38.901149 81.177403 42.173953 C 79.339316 45.45134 76.744909 47.908235 73.403349 49.544637 C 70.061788 51.181039 66.133507 52.001532 61.618505 52.001532 L 47.867228 52.001532 L 47.867228 9.505504 L 62.57651 9.505504 C 67.151102 9.505504 71.024378 10.289327 74.200923 11.856972 C 77.382051 13.429201 79.797692 15.725665 81.457013 18.746362 C 83.11175 21.771642 83.94141 25.470736 83.94141 29.852809 Z M 72.023637 30.25618 C 72.023637 27.680108 71.679855 25.544076 70.992291 23.848085 C 70.304728 22.152094 69.273382 20.882393 67.893671 20.038982 C 66.518543 19.19557 64.785882 18.773864 62.691104 18.773864 L 59.349544 18.773864 L 59.349544 42.581907 L 61.907282 42.581907 C 65.395522 42.581907 67.953259 41.568897 69.580494 39.542875 C 71.207728 37.521438 72.023637 34.422817 72.023637 30.25618 Z M 128.25719 9.505504 L 114.336314 52.001532 L 100.81881 52.001532 L 86.95294 9.505504 L 99.860804 9.505504 L 105.645508 31.044586 C 105.856361 31.855912 106.103884 32.896425 106.383493 34.166126 C 106.667686 35.435827 106.92896 36.700945 107.167316 37.961478 C 107.410255 39.222012 107.561519 40.248774 107.621108 41.041764 C 107.699032 40.248774 107.841128 39.23118 108.056565 37.988981 C 108.267418 36.751366 108.505773 35.504584 108.767048 34.253218 C 109.028322 33.006435 109.275845 31.970506 109.509616 31.15918 L 115.408914 9.505504 Z M 158.069957 52.001532 L 132.840949 52.001532 L 132.840949 9.505504 L 158.069957 9.505504 L 158.069957 18.718859 L 144.323264 18.718859 L 144.323264 25.401979 L 157.052362 25.401979 L 157.052362 34.619918 L 144.323264 34.619918 L 144.323264 42.641496 L 158.069957 42.641496 Z M 205.965652 52.001532 L 190.908005 52.001532 L 175.387398 22.060419 L 175.126123 22.060419 C 175.222382 22.972587 175.309474 24.068106 175.387398 25.346974 C 175.465321 26.625843 175.534078 27.92763 175.589083 29.256921 C 175.648672 30.581627 175.676174 31.777988 175.676174 32.846004 L 175.676174 52.001532 L 165.504814 52.001532 L 165.504814 9.505504 L 180.502872 9.505504 L 195.968474 39.034078 L 196.142657 39.034078 C 196.083068 38.103575 196.02348 37.026392 195.968474 35.793361 C 195.908886 34.564913 195.85388 33.318131 195.808043 32.057597 C 195.757622 30.801647 195.734703 29.687794 195.734703 28.716037 L 195.734703 9.505504 L 205.965652 9.505504 Z M 233.889911 52.001532 L 222.407595 52.001532 L 222.407595 18.893042 L 212.029965 18.893042 L 212.029965 9.505504 L 244.235454 9.505504 L 244.235454 18.893042 L 233.889911 18.893042 Z M 286.433538 9.505504 L 286.433538 35.082878 C 286.433538 38.649042 285.755141 41.743079 284.398349 44.369573 C 283.041556 46.996067 281.006367 49.022088 278.292782 50.443054 C 275.579197 51.868603 272.182632 52.579085 268.093919 52.579085 C 262.240459 52.579085 257.771294 51.080196 254.691008 48.077834 C 251.610722 45.070888 250.070579 40.826328 250.070579 35.344152 L 250.070579 9.505504 L 261.6079 9.505504 L 261.6079 34.441152 C 261.6079 37.448097 262.171702 39.625383 263.294723 40.982175 C 264.417744 42.338968 266.077065 43.017364 268.268102 43.017364 C 269.835747 43.017364 271.114616 42.724004 272.104708 42.132699 C 273.090216 41.541394 273.81445 40.606307 274.268242 39.327439 C 274.722034 38.04857 274.951222 36.398417 274.951222 34.386147 L 274.951222 9.505504 Z M 309.269824 9.505504 C 313.124765 9.505504 316.333396 9.973047 318.891133 10.912718 C 321.448871 11.852388 323.374049 13.255019 324.662086 15.111441 C 325.950122 16.972447 326.591848 19.287245 326.591848 22.060419 C 326.591848 23.783913 326.303071 25.356142 325.720934 26.76794 C 325.138797 28.184321 324.31372 29.449438 323.236537 30.563292 C 322.159353 31.677145 320.875901 32.648902 319.386179 33.483146 L 331.766912 52.001532 L 318.744453 52.001532 L 309.732783 36.535929 L 306.82668 36.535929 L 306.82668 52.001532 L 295.344365 52.001532 L 295.344365 9.505504 Z M 309.095641 18.196311 L 306.82668 18.196311 L 306.82668 27.904712 L 308.976463 27.904712 C 310.74121 27.904712 312.185094 27.515092 313.308115 26.740437 C 314.43572 25.965782 314.994938 24.581487 314.994938 22.582968 C 314.994938 21.20784 314.531979 20.130657 313.601476 19.356002 C 312.670973 18.581346 311.1675 18.196311 309.095641 18.196311 Z M 360.855445 52.001532 L 335.621853 52.001532 L 335.621853 9.505504 L 360.855445 9.505504 L 360.855445 18.718859 L 347.104169 18.718859 L 347.104169 25.401979 L 359.837851 25.401979 L 359.837851 34.619918 L 347.104169 34.619918 L 347.104169 42.641496 L 360.855445 42.641496 Z M 396.077047 39.093667 C 396.077047 41.399298 395.49491 43.58575 394.330635 45.648442 C 393.170944 47.711133 391.36036 49.384205 388.912632 50.663074 C 386.460321 51.941943 383.297528 52.579085 379.419668 52.579085 C 377.480738 52.579085 375.780164 52.491994 374.317944 52.317811 C 372.855725 52.143628 371.494349 51.859435 370.233815 51.460648 C 368.973282 51.066445 367.666911 50.54848 366.310118 49.906754 L 366.310118 39.675804 C 368.615749 40.840079 370.944298 41.724744 373.286599 42.334384 C 375.633483 42.944024 377.755764 43.251136 379.65344 43.251136 C 380.794796 43.251136 381.729882 43.113623 382.4587 42.843182 C 383.182934 42.57274 383.723817 42.201455 384.072183 41.724744 C 384.420549 41.248033 384.594732 40.702566 384.594732 40.083759 C 384.594732 39.345774 384.338041 38.722382 383.82466 38.209001 C 383.311279 37.69562 382.490786 37.154737 381.367765 36.595518 C 380.244745 36.031716 378.759607 35.334985 376.921519 34.500741 C 375.34929 33.767339 373.932909 33.011019 372.663208 32.236364 C 371.393506 31.457125 370.307156 30.572459 369.408739 29.5732 C 368.505738 28.578524 367.813591 27.409666 367.327712 26.071208 C 366.841834 24.732751 366.603478 23.155938 366.603478 21.336185 C 366.603478 18.599681 367.272707 16.312386 368.620332 14.460547 C 369.967957 12.608709 371.847299 11.21983 374.262939 10.289327 C 376.673996 9.358824 379.460922 8.89128 382.619132 8.89128 C 385.387722 8.89128 387.88587 9.202976 390.10441 9.821783 C 392.322949 10.445175 394.3123 11.151073 396.077047 11.944064 L 392.556721 20.809053 C 390.736968 19.979393 388.944719 19.314748 387.179972 18.819702 C 385.419808 18.324656 383.778823 18.077133 382.270766 18.077133 C 381.280674 18.077133 380.469349 18.200894 379.841374 18.443834 C 379.213399 18.682189 378.745855 19.007636 378.447911 19.41559 C 378.145383 19.823545 377.994119 20.286505 377.994119 20.809053 C 377.994119 21.469114 378.25081 22.060419 378.76419 22.582968 C 379.277571 23.105516 380.143902 23.673902 381.354014 24.283542 C 382.564127 24.893182 384.21428 25.686172 386.309057 26.653346 C 388.380916 27.583849 390.145664 28.587692 391.598715 29.660291 C 393.051767 30.737475 394.161036 32.025511 394.926524 33.528984 C 395.692012 35.027873 396.077047 36.884295 396.077047 39.093667 Z M 396.077047 39.093667 " stroke="#eeeeee" stroke-width="2.232562" stroke-opacity="1" stroke-miterlimit="4"/></svg>